HIERARCHY
ROOT Hips
{
 OFFSET 0.000000 0.000000 0.000000
 CHANNELS 6 Xposition Yposition Zposition Yrotation Xrotation Zrotation
 JOINT Chest
 {
  OFFSET 0.000000 9.585900 0.002600
  CHANNELS 3 Yrotation Xrotation Zrotation
  JOINT Chest2
  {
   OFFSET 0.000000 9.601200 -0.005300
   CHANNELS 3 Yrotation Xrotation Zrotation
   JOINT Chest3
   {
    OFFSET 0.000000 9.561800 0.000000
    CHANNELS 3 Yrotation Xrotation Zrotation
    JOINT Chest4
    {
     OFFSET 0.000000 9.552100 0.000000
     CHANNELS 3 Yrotation Xrotation Zrotation
     JOINT Neck
     {
      OFFSET 0.000000 14.453000 0.000000
      CHANNELS 3 Yrotation Xrotation Zrotation
      JOINT Head
      {
       OFFSET 0.000000 8.936500 -0.011300
       CHANNELS 3 Yrotation Xrotation Zrotation
       End Site
       {
        OFFSET 0.000000 17.073600 -0.006000
       }
      }
     }
     JOINT RightCollar
     {
      OFFSET -2.921100 9.558500 0.000000
      CHANNELS 3 Yrotation Xrotation Zrotation
      JOINT RightShoulder
      {
       OFFSET -13.519700 0.000000 0.000000
       CHANNELS 3 Yrotation Xrotation Zrotation
       JOINT RightElbow
       {
        OFFSET 0.000000 -29.696600 0.000000
        CHANNELS 3 Yrotation Xrotation Zrotation
        JOINT RightWrist
        {
         OFFSET 0.000000 -24.004700 0.000000
         CHANNELS 3 Yrotation Xrotation Zrotation
         End Site
         {
          OFFSET 0.000000 -17.728500 0.000000
         }
        }
       }
      }
     }
     JOINT LeftCollar
     {
      OFFSET 2.921100 9.558500 0.000000
      CHANNELS 3 Yrotation Xrotation Zrotation
      JOINT LeftShoulder
      {
       OFFSET 13.519700 0.000000 0.000000
       CHANNELS 3 Yrotation Xrotation Zrotation
       JOINT LeftElbow
       {
        OFFSET 0.000000 -29.696600 0.000000
        CHANNELS 3 Yrotation Xrotation Zrotation
        JOINT LeftWrist
        {
         OFFSET 0.000000 -24.004700 0.000000
         CHANNELS 3 Yrotation Xrotation Zrotation
         End Site
         {
          OFFSET 0.000000 -17.728500 0.000000
         }
        }
       }
      }
     }
    }
   }
  }
 }
 JOINT RightHip
 {
  OFFSET -7.771700 -0.012900 -0.001300
  CHANNELS 3 Yrotation Xrotation Zrotation
  JOINT RightKnee
  {
   OFFSET 0.000000 -40.869800 0.001200
   CHANNELS 3 Yrotation Xrotation Zrotation
   JOINT RightAnkle
   {
    OFFSET 0.000000 -39.717900 0.002100
    CHANNELS 3 Yrotation Xrotation Zrotation
    JOINT RightToe
    {
     OFFSET 0.000000 -4.965400 11.033500
     CHANNELS 3 Yrotation Xrotation Zrotation
     End Site
     {
      OFFSET 0.000000 -1.423100 5.872300
     }
    }
   }
  }
 }
 JOINT LeftHip
 {
  OFFSET 7.771700 -0.012900 -0.001300
  CHANNELS 3 Yrotation Xrotation Zrotation
  JOINT LeftKnee
  {
   OFFSET 0.000000 -40.869800 0.001200
   CHANNELS 3 Yrotation Xrotation Zrotation
   JOINT LeftAnkle
   {
    OFFSET 0.000000 -39.717900 0.002100
    CHANNELS 3 Yrotation Xrotation Zrotation
    JOINT LeftToe
    {
     OFFSET 0.000000 -4.965400 11.033500
     CHANNELS 3 Yrotation Xrotation Zrotation
     End Site
     {
      OFFSET 0.000000 -1.423100 5.872300
     }
    }
   }
  }
 }
}
MOTION
Frames: 12
Frame Time: 0.008333
-31.156782 62.054578 12.534279 177.418203 -51.545395 -1.018371 3.308472 27.485862 0.706213 0.493555 4.794895 0.119967 0.786710 7.578701 0.209275 2.482670 22.240246 0.954642 1.316146 15.269153 3.083931 1.319048 -7.474891 5.294735 5.880099 3.690215 4.051412 -6.073977 -4.578328 -12.682593 -111.733387 -55.863011 149.101913 9.989854 12.055032 -3.734491 -8.458341 1.250845 0.867340 -0.781337 -3.526954 12.631853 134.841730 -70.798552 -156.662466 8.466553 7.446118 -15.936662 3.038877 -15.367896 -6.145316 -1.152894 61.299723 -4.943856 1.345569 -7.789934 10.631704 0.220294 -0.457800 0.117524 -3.789508 -12.600006 2.398953 23.909492 77.008368 24.023499 0.721611 -11.894945 -3.055345 0.192777 0.640654 0.081273
-31.157243 62.055867 12.534367 177.413413 -51.555805 -1.015352 3.307303 27.501554 0.707719 0.490904 4.803252 0.121219 0.782007 7.593279 0.210610 2.474441 22.253818 0.953083 1.320549 15.285177 3.064849 1.332877 -7.492141 5.276116 5.944243 3.615963 4.019372 -6.069687 -4.516060 -12.655363 -111.697028 -55.888751 149.063741 10.011045 12.081208 -3.721027 -8.486577 1.208802 0.867316 -0.767157 -3.507145 12.628455 134.843861 -70.819613 -156.677019 8.436762 7.454778 -15.952542 3.040837 -15.354987 -6.142149 -1.150247 61.300475 -4.942009 1.338885 -7.814748 10.625006 0.219689 -0.445199 0.119595 -3.791241 -12.587956 2.393387 23.890406 77.009004 24.010489 0.722089 -11.895978 -3.058634 0.201077 0.639617 0.080583
-31.156855 62.058124 12.533724 177.417603 -51.573357 -1.023485 3.304035 27.523871 0.714719 0.492281 4.802779 0.120103 0.774864 7.608033 0.213003 2.462604 22.271886 0.953000 1.325410 15.304344 3.045342 1.353668 -7.392003 5.209751 5.973690 3.571738 3.998976 -6.069158 -4.500069 -12.648377 -111.624255 -55.903067 149.018310 10.025971 12.100588 -3.712662 -8.528793 1.169600 0.862257 -0.744580 -3.486778 12.626124 134.856646 -70.845511 -156.695823 8.405528 7.463044 -15.980666 3.037275 -15.337237 -6.134956 -1.154835 61.303508 -4.945708 1.340323 -7.822832 10.624119 0.215843 -0.451627 0.115075 -3.799442 -12.567440 2.389778 23.899286 77.004920 24.031042 0.710478 -11.895841 -3.071884 0.218329 0.638826 0.083805
-31.155552 62.059617 12.533711 177.410418 -51.585351 -1.027515 3.302268 27.543149 0.725301 0.490915 4.809301 0.119779 0.782402 7.599802 0.208817 2.455202 22.283369 0.954027 1.327972 15.314590 3.035314 1.366242 -7.304592 5.159220 5.994878 3.545887 3.987792 -6.067217 -4.484393 -12.642485 -111.571221 -55.917597 148.985702 10.035900 12.111612 -3.702870 -8.539371 1.151591 0.858113 -0.809820 -3.455307 12.635524 134.938604 -70.850294 -156.711774 8.370999 7.491632 -16.036000 3.039951 -15.324953 -6.121634 -1.159461 61.304730 -4.949617 1.340382 -7.837726 10.617995 0.215457 -0.451409 0.116114 -3.802467 -12.551351 2.384309 23.925304 76.999438 24.077540 0.706032 -11.901608 -3.095123 0.231912 0.642676 0.088014
-31.157347 62.060492 12.533962 177.400300 -51.593213 -1.010056 3.292029 27.561356 0.713099 0.489239 4.814878 0.119935 0.779673 7.608327 0.208864 2.455723 22.276944 0.949027 1.330475 15.325100 3.024831 1.376020 -7.240941 5.117636 6.031826 3.511624 3.967732 -6.033608 -4.446599 -12.631162 -111.581555 -55.930489 148.966304 10.044001 12.120587 -3.685452 -8.571475 1.129566 0.851473 -0.812589 -3.438865 12.642602 134.963143 -70.864330 -156.715017 8.332617 7.520412 -16.094189 3.050549 -15.316435 -6.131798 -1.157605 61.307390 -4.947510 1.340879 -7.857586 10.613666 0.218309 -0.461310 0.112544 -3.811221 -12.540062 2.358494 24.002136 76.987036 24.147977 0.729848 -11.905083 -3.097480 0.212510 0.646565 0.084407
-31.156429 62.060767 12.534862 177.391474 -51.596903 -1.009416 3.287867 27.577359 0.719288 0.487837 4.820201 0.120115 0.770718 7.637032 0.213943 2.451812 22.265592 0.941724 1.327651 15.394579 2.992886 1.393912 -7.257104 5.082656 6.073297 3.465052 3.934677 -6.034302 -4.425361 -12.619463 -111.551145 -55.938914 148.944838 10.052835 12.128755 -3.664431 -8.639002 1.090631 0.841441 -0.772689 -3.426430 12.645981 134.968980 -70.933589 -156.765158 8.311817 7.489879 -16.099305 3.055159 -15.311990 -6.124674 -1.142282 61.305997 -4.932407 1.336917 -7.873014 10.608368 0.211085 -0.456229 0.112543 -3.815285 -12.535793 2.353730 24.040727 76.983684 24.193837 0.738905 -11.905191 -3.110386 0.207461 0.645896 0.086656
-31.155870 62.060665 12.536103 177.384054 -51.597931 -1.007540 3.287193 27.589657 0.726165 0.487483 4.825260 0.119735 0.770935 7.632999 0.209634 2.448949 22.286211 0.943820 1.323370 15.402108 2.971575 1.396986 -7.217437 5.049602 6.103318 3.415508 3.906582 -6.047674 -4.404586 -12.603925 -111.507517 -55.944756 148.927374 10.066363 12.126365 -3.671216 -8.652522 1.056427 0.840450 -0.797470 -3.417527 12.650169 134.995601 -70.951865 -156.769397 8.261288 7.519234 -16.162826 3.059159 -15.308628 -6.120431 -1.136684 61.303365 -4.923692 1.331078 -7.894680 10.600397 0.209443 -0.437233 0.116495 -3.814600 -12.533345 2.348391 24.017696 76.980426 24.193365 0.719559 -11.904258 -3.130776 0.238399 0.645269 0.094775
-31.156314 62.060745 12.537202 177.375751 -51.600719 -0.998935 3.284067 27.595869 0.722470 0.486803 4.828976 0.119287 0.769179 7.630453 0.208872 2.445403 22.301354 0.940759 1.327761 15.399873 2.960597 1.397530 -7.196614 5.033377 6.154978 3.345307 3.879927 -6.081107 -4.352295 -12.587232 -111.491633 -55.947161 148.917875 10.062325 12.143396 -3.620805 -8.662614 1.035725 0.843092 -0.823322 -3.408517 12.653322 135.019162 -70.997346 -156.805105 8.213701 7.518615 -16.197465 3.063097 -15.307369 -6.120949 -1.134855 61.304910 -4.923845 1.328322 -7.903382 10.598194 0.213540 -0.441720 0.114859 -3.821879 -12.529688 2.338184 24.063509 76.975277 24.234755 0.727038 -11.906463 -3.130983 0.227307 0.646345 0.090114
-31.156334 62.060137 12.538991 177.376618 -51.597911 -1.000506 3.262900 27.593437 0.715479 0.498816 4.829597 0.119027 0.765259 7.631267 0.207684 2.449219 22.303501 0.941797 1.326869 15.409958 2.948351 1.396491 -7.174932 5.016764 6.177535 3.314084 3.867741 -6.078016 -4.324116 -12.586428 -111.482593 -55.949706 148.902495 10.058591 12.153953 -3.566129 -8.694606 1.029123 0.846206 -0.828545 -3.400044 12.652582 135.046297 -71.042928 -156.848182 8.158071 7.518396 -16.241796 3.062004 -15.311321 -6.119292 -1.133419 61.304964 -4.923071 1.328481 -7.908594 10.597585 0.209209 -0.447732 0.111353 -3.839866 -12.533974 2.327688 24.112408 76.970644 24.285855 0.732890 -11.902300 -3.145150 0.225755 0.643721 0.090886
-31.155641 62.060385 12.540246 177.359388 -51.601478 -0.992491 3.263704 27.598714 0.716761 0.497185 4.827693 0.117530 0.774712 7.631310 0.207102 2.436030 22.305378 0.940086 1.299600 15.453264 2.913478 1.397553 -7.119385 4.954246 6.210991 3.283452 3.856806 -6.074007 -4.301549 -12.589268 -111.435372 -55.954132 148.871623 10.072743 12.152669 -3.542308 -8.715633 1.020604 0.853568 -0.810737 -3.391661 12.644018 135.076024 -71.088206 -156.905632 8.097589 7.521063 -16.305958 3.071135 -15.309327 -6.112616 -1.131226 61.303775 -4.922240 1.333233 -7.913135 10.598001 0.209403 -0.453457 0.108285 -3.845423 -12.530127 2.320914 24.130584 76.972228 24.305418 0.757468 -11.903246 -3.152564 0.217283 0.642922 0.084428
-31.156928 62.060556 12.541567 177.347020 -51.603512 -0.977129 3.258707 27.603568 0.706523 0.487459 4.830671 0.117817 0.779678 7.630759 0.205600 2.408102 22.311602 0.935265 1.320519 15.453876 2.891687 1.368600 -7.070396 4.899407 6.266403 3.243348 3.837072 -6.070446 -4.280214 -12.597071 -111.356491 -55.966265 148.846199 10.092438 12.142668 -3.550748 -8.739433 0.988995 0.862779 -0.765532 -3.371045 12.625818 135.095201 -71.113019 -156.931404 8.019207 7.542285 -16.395902 3.081994 -15.307037 -6.115633 -1.137359 61.302729 -4.929403 1.326604 -7.921535 10.596813 0.205280 -0.459939 0.105379 -3.862804 -12.525005 2.295902 24.225636 76.957363 24.394714 0.777491 -11.904707 -3.155231 0.202074 0.646942 0.071303
-31.157825 62.060739 12.542981 177.336533 -51.604710 -0.966339 3.260512 27.605747 0.702196 0.483745 4.831783 0.117710 0.762227 7.632925 0.205660 2.413363 22.309169 0.929896 1.296539 15.471749 2.866003 1.360817 -7.047980 4.860912 6.302453 3.210036 3.829106 -6.033803 -4.275134 -12.629838 -111.299127 -55.969298 148.781380 10.103744 12.141057 -3.539602 -8.754679 0.975939 0.868638 -0.770247 -3.361614 12.624742 135.115308 -71.140035 -156.935364 7.941759 7.560178 -16.490672 3.089029 -15.306342 -6.116358 -1.142944 61.302457 -4.934754 1.321128 -7.929242 10.594457 0.208905 -0.452823 0.107124 -3.868867 -12.521798 2.279268 24.273254 76.946782 24.444459 0.794934 -11.903859 -3.166434 0.188542 0.648391 0.071930
